<?xml version="1.0" encoding="utf-8"?>
<!-- Generator: Adobe Illustrator 24.1.2, SVG Export Plug-In . SVG Version: 6.00 Build 0)  -->
<svg version="1.1" id="Layer_1" xmlns="http://www.w3.org/2000/svg" xmlns:xlink="http://www.w3.org/1999/xlink" x="0px" y="0px"
	 viewBox="0 0 612 792" style="enable-background:new 0 0 612 792;" xml:space="preserve">
<style type="text/css">
	.st0{stroke:#000000;stroke-miterlimit:10;}
</style>
<path class="st0" d="M302.86,339.19l55.52-32.17c2.19-1.27,2.94-4.08,1.67-6.27l0,0c-1.27-2.19-4.07-2.93-6.26-1.67l-55.52,32.17
	c-2.19,1.27-4.99,0.52-6.26-1.67l-10.44-18.02c-1.27-2.19-0.52-5,1.67-6.26l55.53-32.17c2.19-1.27,2.94-4.07,1.67-6.26
	l-67.68-116.81c-1.27-2.19-4.07-2.94-6.26-1.67l-65.62,38.01c-2.19,1.27-2.94,4.07-1.67,6.26l63.08,108.88
	c1.27,2.19,0.52,4.99-1.67,6.26l-55.53,32.17c-2.19,1.27-2.94,4.08-1.67,6.27h0c1.27,2.19,4.07,2.93,6.26,1.67l55.53-32.17
	c2.19-1.27,5-0.52,6.26,1.67l10.44,18.03c1.27,2.19,0.52,4.99-1.67,6.26l-55.53,32.17c-2.19,1.27-2.94,4.07-1.67,6.26l67.67,116.81
	c1.27,2.19,4.07,2.94,6.26,1.67l65.62-38.01c2.19-1.27,2.94-4.07,1.67-6.26l-63.07-108.88
	C299.92,343.27,300.67,340.46,302.86,339.19z M215.54,188.49l45.43-26.32c2.19-1.27,5-0.52,6.26,1.67l58.48,100.95
	c1.27,2.19,0.52,5-1.67,6.26l-45.43,26.31c-2.19,1.27-4.99,0.52-6.26-1.67l-58.48-100.94C212.6,192.57,213.35,189.76,215.54,188.49z
	 M239.39,375.95l45.44-26.32c2.19-1.27,4.99-0.52,6.26,1.67l58.48,100.94c1.27,2.19,0.52,4.99-1.67,6.26l-45.43,26.32
	c-2.19,1.27-5,0.52-6.26-1.67l-58.49-100.95C236.45,380.03,237.2,377.22,239.39,375.95z"/>
</svg>
